<svg width="24" height="24" viewBox="0 0 24 24" fill="none" xmlns="http://www.w3.org/2000/svg">
<path d="M20.934 5.46675L13.191 0.995996C12.8498 0.794996 12.4395 0.677246 12 0.677246C11.5605 0.677246 11.1503 0.795746 10.797 1.002L10.8083 0.995996L3.06525 5.46675C2.70391 5.67659 2.40383 5.97741 2.19487 6.33926C1.98592 6.70112 1.87538 7.11139 1.87425 7.52925V16.4707C1.87535 16.8866 1.98479 17.2949 2.1918 17.6555C2.39881 18.0162 2.69624 18.3166 3.05475 18.5272L3.06675 18.5332L10.8083 23.004C11.1705 23.214 11.582 23.3241 12.0008 23.3227C12.4388 23.3227 12.849 23.2042 13.2023 22.998L13.1918 23.004L20.9333 18.5332C21.2946 18.3234 21.5947 18.0226 21.8036 17.6607C22.0126 17.2989 22.1231 16.8886 22.1243 16.4707V7.52925C22.124 7.11336 22.015 6.70477 21.808 6.34402C21.6011 5.98327 21.3034 5.68291 20.9445 5.47275L20.934 5.46675ZM20.5373 16.4707C20.5373 16.7625 20.379 17.0182 20.1428 17.1562L20.1398 17.1577L12.3968 21.6285C12.2753 21.6986 12.1374 21.7354 11.9971 21.735C11.8568 21.7346 11.7191 21.6971 11.598 21.6262L11.6018 21.6277L3.85875 17.157C3.73826 17.0873 3.63819 16.9871 3.56856 16.8665C3.49893 16.746 3.46219 16.6092 3.462 16.47V7.5285C3.462 7.23675 3.62025 6.981 3.8565 6.843L3.8595 6.8415L11.6025 2.37075C11.7241 2.30112 11.8618 2.26455 12.002 2.26469C12.1421 2.26482 12.2798 2.30164 12.4013 2.3715L12.3968 2.37L20.1398 6.84075C20.379 6.9795 20.5365 7.236 20.5365 7.52775L20.5373 16.4707Z" fill="white"/>
<path d="M16.5705 14.5882H16.002C15.8666 14.5879 15.7335 14.6228 15.6157 14.6895L15.6202 14.6865L12.1897 16.5705L8.22825 14.2837V9.72224L12.1897 7.43399L15.6217 9.31199C15.7312 9.37349 15.864 9.41024 16.0027 9.41024H16.5712C16.6234 9.41014 16.6751 9.39976 16.7233 9.37969C16.7715 9.35963 16.8153 9.33027 16.8521 9.29328C16.8889 9.2563 16.9181 9.21243 16.938 9.16416C16.9579 9.1159 16.9681 9.06419 16.968 9.01199V8.47499C16.9681 8.40426 16.9493 8.33479 16.9136 8.27375C16.8778 8.21271 16.8265 8.1623 16.7647 8.12774L16.7617 8.12624L12.9532 6.04349C12.7128 5.91206 12.4425 5.84501 12.1685 5.84882C11.8945 5.85263 11.6262 5.92718 11.3895 6.06524L11.397 6.06074L7.43625 8.34749C7.1954 8.48759 6.99539 8.68824 6.85606 8.92953C6.71673 9.17083 6.64294 9.44436 6.642 9.72299V14.2845C6.642 14.8687 6.9585 15.3802 7.42875 15.6555L7.4355 15.66L11.3962 17.9467C11.6341 18.0834 11.9031 18.1564 12.1774 18.1589C12.4517 18.1614 12.722 18.0933 12.9622 17.961L12.9532 17.9655L16.7632 15.8752C16.8259 15.841 16.8781 15.7906 16.9146 15.7292C16.951 15.6679 16.9702 15.5978 16.9702 15.5265V14.9895C16.9701 14.8843 16.9282 14.7835 16.8538 14.7092C16.7795 14.6348 16.6787 14.5929 16.5735 14.5927L16.5705 14.5882Z" fill="white"/>
</svg>
