<svg width="275" height="103" viewBox="0 0 275 103" fill="none" xmlns="http://www.w3.org/2000/svg">
<path d="M89.8418 23.4617L56.6114 4.27471C55.1468 3.41208 53.3862 2.90674 51.5 2.90674C49.6138 2.90674 47.8532 3.4153 46.3371 4.30046L46.3854 4.27471L13.155 23.4617C11.6043 24.3623 10.3164 25.6533 9.41965 27.2062C8.52288 28.7592 8.04848 30.52 8.04366 32.3132V70.6872C8.04835 72.4717 8.51807 74.2242 9.40648 75.7719C10.2949 77.3196 11.5713 78.609 13.11 79.513L13.1615 79.5387L46.3854 98.7257C47.94 99.6272 49.7062 100.099 51.5032 100.094C53.383 100.094 55.1436 99.5851 56.6597 98.7L56.6146 98.7257L89.8385 79.5387C91.3893 78.6382 92.6771 77.3471 93.5739 75.7942C94.4707 74.2412 94.9451 72.4805 94.9499 70.6872V32.3132C94.9487 30.5284 94.4809 28.7748 93.5927 27.2266C92.7046 25.6784 91.427 24.3894 89.8868 23.4874L89.8418 23.4617ZM88.139 70.6872C88.139 71.9393 87.4599 73.0369 86.446 73.6291L86.4331 73.6356L53.2027 92.8225C52.6813 93.1235 52.0895 93.2812 51.4874 93.2795C50.8854 93.2778 50.2945 93.1168 49.7747 92.8129L49.7908 92.8193L16.5605 73.6323C16.0433 73.333 15.6139 72.9031 15.3151 72.3857C15.0162 71.8683 14.8585 71.2815 14.8577 70.684V32.31C14.8577 31.0579 15.5369 29.9603 16.5508 29.3681L16.5637 29.3616L49.7941 10.1747C50.316 9.87586 50.9071 9.71894 51.5085 9.7195C52.1099 9.72006 52.7007 9.8781 53.222 10.1779L53.2027 10.1715L86.4331 29.3584C87.4599 29.9539 88.1358 31.0547 88.1358 32.3068L88.139 70.6872Z" fill="black"/>
<path d="M71.1151 62.6079H68.6753C68.0944 62.6065 67.5231 62.7562 67.0176 63.0425L67.0369 63.0296L52.3143 71.1151L35.3129 61.3011V41.7247L52.3143 31.9043L67.0433 39.964C67.5133 40.228 68.083 40.3857 68.6785 40.3857H71.1183C71.3423 40.3853 71.5641 40.3407 71.7709 40.2546C71.9777 40.1685 72.1655 40.0425 72.3236 39.8838C72.4817 39.725 72.607 39.5367 72.6924 39.3296C72.7777 39.1225 72.8214 38.9006 72.821 38.6765V36.3719C72.8213 36.0684 72.7407 35.7702 72.5873 35.5082C72.434 35.2463 72.2136 35.03 71.9487 34.8816L71.9358 34.8752L55.591 25.9367C54.5592 25.3727 53.3991 25.0849 52.2232 25.1012C51.0474 25.1176 49.8957 25.4375 48.8799 26.0301L48.9121 26.0107L31.9139 35.8247C30.8803 36.426 30.0219 37.2871 29.4239 38.3227C28.826 39.3582 28.5093 40.5321 28.5052 41.7279V61.3043C28.5052 63.8117 29.8636 66.0069 31.8817 67.1882L31.9107 67.2075L48.9089 77.0215C49.9297 77.6078 51.0842 77.9214 52.2613 77.9321C53.4384 77.9428 54.5984 77.6503 55.6297 77.0827L55.591 77.102L71.9423 68.1313C72.2111 67.9845 72.4354 67.7681 72.5917 67.5048C72.748 67.2414 72.8306 66.9408 72.8307 66.6346V64.33C72.8298 63.8786 72.6501 63.446 72.331 63.1269C72.0119 62.8078 71.5793 62.6281 71.1279 62.6273L71.1151 62.6079Z" fill="black"/>
<path d="M131.12 65.44C129.013 65.44 127.053 65.08 125.24 64.36C123.453 63.6133 121.88 62.5733 120.52 61.24C119.187 59.9067 118.147 58.36 117.4 56.6C116.653 54.8133 116.28 52.8933 116.28 50.84C116.28 48.7867 116.653 46.88 117.4 45.12C118.147 43.3333 119.187 41.7867 120.52 40.48C121.853 39.1733 123.413 38.16 125.2 37.44C127.013 36.6933 128.973 36.32 131.08 36.32C133.32 36.32 135.307 36.68 137.04 37.4C138.8 38.12 140.333 39.1067 141.64 40.36L137.44 44.6C136.693 43.8 135.787 43.1733 134.72 42.72C133.68 42.2667 132.467 42.04 131.08 42.04C129.853 42.04 128.72 42.2533 127.68 42.68C126.667 43.08 125.787 43.6667 125.04 44.44C124.32 45.2133 123.747 46.1467 123.32 47.24C122.92 48.3333 122.72 49.5333 122.72 50.84C122.72 52.1733 122.92 53.3867 123.32 54.48C123.747 55.5733 124.32 56.5067 125.04 57.28C125.787 58.0533 126.667 58.6533 127.68 59.08C128.72 59.5067 129.853 59.72 131.08 59.72C132.52 59.72 133.773 59.4933 134.84 59.04C135.907 58.5867 136.827 57.96 137.6 57.16L141.84 61.4C140.48 62.6533 138.92 63.64 137.16 64.36C135.427 65.08 133.413 65.44 131.12 65.44ZM153.629 65.44C151.629 65.44 149.816 65 148.189 64.12C146.589 63.2133 145.323 61.9867 144.389 60.44C143.456 58.8933 142.989 57.16 142.989 55.24C142.989 53.32 143.456 51.6 144.389 50.08C145.323 48.56 146.589 47.36 148.189 46.48C149.789 45.5733 151.603 45.12 153.629 45.12C155.656 45.12 157.469 45.56 159.069 46.44C160.669 47.32 161.936 48.5333 162.869 50.08C163.803 51.6 164.269 53.32 164.269 55.24C164.269 57.16 163.803 58.8933 162.869 60.44C161.936 61.9867 160.669 63.2133 159.069 64.12C157.469 65 155.656 65.44 153.629 65.44ZM153.629 59.88C154.509 59.88 155.283 59.6933 155.949 59.32C156.616 58.92 157.123 58.3733 157.469 57.68C157.843 56.96 158.029 56.1467 158.029 55.24C158.029 54.3333 157.843 53.5467 157.469 52.88C157.096 52.1867 156.576 51.6533 155.909 51.28C155.269 50.88 154.509 50.68 153.629 50.68C152.776 50.68 152.016 50.88 151.349 51.28C150.683 51.6533 150.163 52.1867 149.789 52.88C149.416 53.5733 149.229 54.3733 149.229 55.28C149.229 56.16 149.416 56.96 149.789 57.68C150.163 58.3733 150.683 58.92 151.349 59.32C152.016 59.6933 152.776 59.88 153.629 59.88ZM167.316 65V45.56H173.436V65H167.316ZM173.436 54.32L170.876 52.32C171.383 50.0533 172.236 48.2933 173.436 47.04C174.636 45.7867 176.303 45.16 178.436 45.16C179.37 45.16 180.183 45.3067 180.876 45.6C181.596 45.8667 182.223 46.2933 182.756 46.88L179.116 51.48C178.85 51.1867 178.516 50.96 178.116 50.8C177.716 50.64 177.263 50.56 176.756 50.56C175.743 50.56 174.93 50.88 174.316 51.52C173.73 52.1333 173.436 53.0667 173.436 54.32ZM193.44 65.44C191.333 65.44 189.453 65.0133 187.8 64.16C186.173 63.28 184.893 62.0667 183.96 60.52C183.026 58.9733 182.56 57.2267 182.56 55.28C182.56 53.3333 183.013 51.6 183.92 50.08C184.853 48.5333 186.106 47.32 187.68 46.44C189.253 45.56 191.026 45.12 193 45.12C194.92 45.12 196.613 45.5333 198.08 46.36C199.546 47.1867 200.693 48.3333 201.52 49.8C202.373 51.2667 202.8 52.9467 202.8 54.84C202.8 55.1867 202.773 55.56 202.72 55.96C202.693 56.3333 202.626 56.7733 202.52 57.28L185.76 57.32V53.12L199.92 53.08L197.28 54.84C197.253 53.72 197.08 52.8 196.76 52.08C196.44 51.3333 195.96 50.7733 195.32 50.4C194.706 50 193.946 49.8 193.04 49.8C192.08 49.8 191.24 50.0267 190.52 50.48C189.826 50.9067 189.28 51.52 188.88 52.32C188.506 53.12 188.32 54.0933 188.32 55.24C188.32 56.3867 188.52 57.3733 188.92 58.2C189.346 59 189.933 59.6267 190.68 60.08C191.453 60.5067 192.36 60.72 193.4 60.72C194.36 60.72 195.226 60.56 196 60.24C196.773 59.8933 197.453 59.3867 198.04 58.72L201.4 62.08C200.44 63.2 199.28 64.04 197.92 64.6C196.56 65.16 195.066 65.44 193.44 65.44ZM214.794 65.44C212.474 65.44 210.474 65.0667 208.794 64.32C207.14 63.5467 205.62 62.3867 204.234 60.84L208.314 56.8C209.22 57.84 210.22 58.6533 211.314 59.24C212.434 59.8 213.727 60.08 215.194 60.08C216.527 60.08 217.554 59.84 218.274 59.36C219.02 58.88 219.394 58.2133 219.394 57.36C219.394 56.5867 219.154 55.96 218.674 55.48C218.194 55 217.554 54.5867 216.754 54.24C215.98 53.8933 215.114 53.56 214.154 53.24C213.22 52.92 212.287 52.56 211.354 52.16C210.42 51.7333 209.554 51.2133 208.754 50.6C207.98 49.96 207.354 49.1733 206.874 48.24C206.394 47.28 206.154 46.08 206.154 44.64C206.154 42.9067 206.567 41.4133 207.394 40.16C208.247 38.9067 209.42 37.96 210.914 37.32C212.407 36.6533 214.127 36.32 216.074 36.32C218.047 36.32 219.847 36.6667 221.474 37.36C223.127 38.0533 224.487 39 225.554 40.2L221.474 44.24C220.62 43.36 219.754 42.7067 218.874 42.28C218.02 41.8533 217.047 41.64 215.954 41.64C214.86 41.64 213.994 41.8533 213.354 42.28C212.714 42.68 212.394 43.2667 212.394 44.04C212.394 44.76 212.634 45.3467 213.114 45.8C213.594 46.2267 214.22 46.6 214.994 46.92C215.794 47.24 216.66 47.56 217.594 47.88C218.554 48.2 219.5 48.5733 220.434 49C221.367 49.4267 222.22 49.9733 222.994 50.64C223.794 51.28 224.434 52.1067 224.914 53.12C225.394 54.1067 225.634 55.3333 225.634 56.8C225.634 59.4933 224.674 61.6133 222.754 63.16C220.834 64.68 218.18 65.44 214.794 65.44ZM229.074 65V45.56H235.194V65H229.074ZM232.154 42.88C231.194 42.88 230.394 42.56 229.754 41.92C229.141 41.2533 228.834 40.4533 228.834 39.52C228.834 38.56 229.141 37.76 229.754 37.12C230.394 36.48 231.194 36.16 232.154 36.16C233.114 36.16 233.901 36.48 234.514 37.12C235.127 37.76 235.434 38.56 235.434 39.52C235.434 40.4533 235.127 41.2533 234.514 41.92C233.901 42.56 233.114 42.88 232.154 42.88ZM242.264 65V37.52H248.384V65H242.264ZM237.864 50.76V45.56H252.784V50.76H237.864ZM264.69 65.44C262.583 65.44 260.703 65.0133 259.05 64.16C257.423 63.28 256.143 62.0667 255.21 60.52C254.276 58.9733 253.81 57.2267 253.81 55.28C253.81 53.3333 254.263 51.6 255.17 50.08C256.103 48.5333 257.356 47.32 258.93 46.44C260.503 45.56 262.276 45.12 264.25 45.12C266.17 45.12 267.863 45.5333 269.33 46.36C270.796 47.1867 271.943 48.3333 272.77 49.8C273.623 51.2667 274.05 52.9467 274.05 54.84C274.05 55.1867 274.023 55.56 273.97 55.96C273.943 56.3333 273.876 56.7733 273.77 57.28L257.01 57.32V53.12L271.17 53.08L268.53 54.84C268.503 53.72 268.33 52.8 268.01 52.08C267.69 51.3333 267.21 50.7733 266.57 50.4C265.956 50 265.196 49.8 264.29 49.8C263.33 49.8 262.49 50.0267 261.77 50.48C261.076 50.9067 260.53 51.52 260.13 52.32C259.756 53.12 259.57 54.0933 259.57 55.24C259.57 56.3867 259.77 57.3733 260.17 58.2C260.596 59 261.183 59.6267 261.93 60.08C262.703 60.5067 263.61 60.72 264.65 60.72C265.61 60.72 266.476 60.56 267.25 60.24C268.023 59.8933 268.703 59.3867 269.29 58.72L272.65 62.08C271.69 63.2 270.53 64.04 269.17 64.6C267.81 65.16 266.316 65.44 264.69 65.44Z" fill="black"/>
</svg>
